<svg width="16" height="16" viewBox="0 0 16 16" fill="none" xmlns="http://www.w3.org/2000/svg">
<g clip-path="url(#clip0_652_1291)">
<path d="M9.33333 5.33329V3.99996C9.33333 3.64634 9.19286 3.3072 8.94281 3.05715C8.69276 2.8071 8.35362 2.66663 8 2.66663H3.33333C2.97971 2.66663 2.64057 2.8071 2.39052 3.05715C2.14048 3.3072 2 3.64634 2 3.99996V12C2 12.3536 2.14048 12.6927 2.39052 12.9428C2.64057 13.1928 2.97971 13.3333 3.33333 13.3333H8C8.35362 13.3333 8.69276 13.1928 8.94281 12.9428C9.19286 12.6927 9.33333 12.3536 9.33333 12V10.6666" stroke="white" stroke-linecap="round" stroke-linejoin="round"/>
<path d="M4.66663 8H14L12 6M12 10L14 8" stroke="white" stroke-linecap="round" stroke-linejoin="round"/>
</g>
<defs>
<clipPath id="clip0_652_1291">
<rect width="16" height="16" fill="white"/>
</clipPath>
</defs>
</svg>
