<svg width="16" height="16" viewBox="0 0 16 16" fill="none" xmlns="http://www.w3.org/2000/svg">
<g clip-path="url(#clip0_652_1283)">
<path d="M5.66667 6.33333C6.03486 6.33333 6.33333 6.03486 6.33333 5.66667C6.33333 5.29848 6.03486 5 5.66667 5C5.29848 5 5 5.29848 5 5.66667C5 6.03486 5.29848 6.33333 5.66667 6.33333Z" fill="#A1A1AA" stroke="#A1A1AA" stroke-linecap="round" stroke-linejoin="round"/>
<path d="M2.66663 4.66669V7.23935C2.66663 7.59735 2.80863 7.94069 3.06196 8.19402L8.47263 13.6047C8.59799 13.7301 8.74682 13.8295 8.91062 13.8974C9.07443 13.9652 9.24999 14.0002 9.42729 14.0002C9.60459 14.0002 9.78016 13.9652 9.94396 13.8974C10.1078 13.8295 10.2566 13.7301 10.382 13.6047L13.6046 10.382C13.73 10.2567 13.8295 10.1078 13.8973 9.94402C13.9652 9.78022 14.0001 9.60466 14.0001 9.42735C14.0001 9.25005 13.9652 9.07449 13.8973 8.91068C13.8295 8.74688 13.73 8.59805 13.6046 8.47269L8.19329 3.06202C7.94025 2.80902 7.59712 2.66683 7.23929 2.66669H4.66663C4.13619 2.66669 3.62749 2.8774 3.25241 3.25247C2.87734 3.62755 2.66663 4.13625 2.66663 4.66669V4.66669Z" stroke="#A1A1AA" stroke-linecap="round" stroke-linejoin="round"/>
</g>
<defs>
<clipPath id="clip0_652_1283">
<rect width="16" height="16" fill="white"/>
</clipPath>
</defs>
</svg>
