<svg width="16" height="16" viewBox="0 0 16 16" fill="none" xmlns="http://www.w3.org/2000/svg">
<g clip-path="url(#clip0_652_1242)">
<path d="M10 3.33331V4.66665" stroke="#A1A1AA" stroke-width="0.75" stroke-linecap="round" stroke-linejoin="round"/>
<path d="M10 7.33331V8.66665" stroke="#A1A1AA" stroke-width="0.75" stroke-linecap="round" stroke-linejoin="round"/>
<path d="M10 11.3333V12.6666" stroke="#A1A1AA" stroke-width="0.75" stroke-linecap="round" stroke-linejoin="round"/>
<path d="M3.33333 3.33331H12.6667C13.0203 3.33331 13.3594 3.47379 13.6095 3.72384C13.8595 3.97389 14 4.31302 14 4.66665V6.66665C13.6464 6.66665 13.3072 6.80712 13.0572 7.05717C12.8071 7.30722 12.6667 7.64636 12.6667 7.99998C12.6667 8.3536 12.8071 8.69274 13.0572 8.94279C13.3072 9.19284 13.6464 9.33331 14 9.33331V11.3333C14 11.6869 13.8595 12.0261 13.6095 12.2761C13.3594 12.5262 13.0203 12.6666 12.6667 12.6666H3.33333C2.97971 12.6666 2.64057 12.5262 2.39052 12.2761C2.14048 12.0261 2 11.6869 2 11.3333V9.33331C2.35362 9.33331 2.69276 9.19284 2.94281 8.94279C3.19286 8.69274 3.33333 8.3536 3.33333 7.99998C3.33333 7.64636 3.19286 7.30722 2.94281 7.05717C2.69276 6.80712 2.35362 6.66665 2 6.66665V4.66665C2 4.31302 2.14048 3.97389 2.39052 3.72384C2.64057 3.47379 2.97971 3.33331 3.33333 3.33331" stroke="#A1A1AA" stroke-width="0.75" stroke-linecap="round" stroke-linejoin="round"/>
</g>
<defs>
<clipPath id="clip0_652_1242">
<rect width="16" height="16" fill="white"/>
</clipPath>
</defs>
</svg>
