<svg width="16" height="16" viewBox="0 0 16 16" fill="none" xmlns="http://www.w3.org/2000/svg">
<g clip-path="url(#clip0_652_1251)">
<path d="M4.66671 4.66667C5.40309 4.66667 6.00004 4.06971 6.00004 3.33333C6.00004 2.59695 5.40309 2 4.66671 2C3.93033 2 3.33337 2.59695 3.33337 3.33333C3.33337 4.06971 3.93033 4.66667 4.66671 4.66667Z" stroke="#A1A1AA" stroke-width="0.75" stroke-linecap="round" stroke-linejoin="round"/>
<path d="M3.33329 14.6666V11.3333L2.66663 10.6666V7.99998C2.66663 7.82317 2.73686 7.6536 2.86189 7.52858C2.98691 7.40355 3.15648 7.33331 3.33329 7.33331H5.99996C6.17677 7.33331 6.34634 7.40355 6.47136 7.52858C6.59639 7.6536 6.66663 7.82317 6.66663 7.99998V10.6666L5.99996 11.3333V14.6666" stroke="#A1A1AA" stroke-width="0.75" stroke-linecap="round" stroke-linejoin="round"/>
<path d="M11.3333 4.66667C12.0697 4.66667 12.6667 4.06971 12.6667 3.33333C12.6667 2.59695 12.0697 2 11.3333 2C10.597 2 10 2.59695 10 3.33333C10 4.06971 10.597 4.66667 11.3333 4.66667Z" stroke="#A1A1AA" stroke-width="0.75" stroke-linecap="round" stroke-linejoin="round"/>
<path d="M9.99996 14.6666V12H8.66663L9.99996 7.99998C9.99996 7.82317 10.0702 7.6536 10.1952 7.52858C10.3202 7.40355 10.4898 7.33331 10.6666 7.33331H12C12.1768 7.33331 12.3463 7.40355 12.4714 7.52858C12.5964 7.6536 12.6666 7.82317 12.6666 7.99998L14 12H12.6666V14.6666" stroke="#A1A1AA" stroke-width="0.75" stroke-linecap="round" stroke-linejoin="round"/>
</g>
<defs>
<clipPath id="clip0_652_1251">
<rect width="16" height="16" fill="white"/>
</clipPath>
</defs>
</svg>
