<svg width="200" height="200" viewBox="0 0 200 200" fill="none" xmlns="http://www.w3.org/2000/svg">
<path d="M175.334 154.87C165.017 169.071 150.872 180.043 134.552 186.504C118.231 192.966 100.409 194.651 83.1672 191.362L84.3805 185.001C100.416 188.06 116.99 186.493 132.168 180.484C147.346 174.475 160.501 164.271 170.096 151.064L175.334 154.87Z" fill="#E5E7EB"/>
<path d="M2.56299 122.495C7.31349 143.072 18.4562 161.616 34.3941 175.471C50.332 189.326 70.2469 197.779 91.2844 199.619L93.0275 179.696C76.1975 178.223 60.2656 171.46 47.5153 160.377C34.765 149.293 25.8508 134.457 22.0504 117.996L2.56299 122.495Z" fill="#D946EF"/>
<path d="M47.0081 15.1952C29.099 26.386 15.1925 42.9592 7.2816 62.5394C-0.629303 82.1196 -2.13846 103.702 2.97043 124.192L22.3763 119.354C18.2892 102.961 19.4966 85.6956 25.8253 70.0315C32.154 54.3673 43.2792 41.1088 57.6064 32.1562L47.0081 15.1952Z" fill="#3B82F6"/>
<path d="M180.902 158.779C190.022 146.226 196.095 131.724 198.643 116.419C201.19 101.114 200.142 85.4257 195.579 70.596C191.017 55.7662 183.067 42.2015 172.357 30.9749C161.647 19.7482 148.472 11.1677 133.874 5.91193L127.099 24.7295C138.778 28.9341 149.318 35.7986 157.886 44.7799C166.453 53.7612 172.814 64.613 176.463 76.4768C180.113 88.3406 180.952 100.891 178.914 113.135C176.876 125.379 172.017 136.981 164.721 147.023L180.902 158.779Z" fill="#14B8A6"/>
<path d="M45.5361 16.1329C58.7712 7.53798 73.8526 2.19738 89.5471 0.547812C105.242 -1.10176 121.104 0.986535 135.837 6.64195L128.669 25.3136C116.883 20.7892 104.193 19.1186 91.6377 20.4382C79.082 21.7579 67.0169 26.0304 56.4289 32.9064L45.5361 16.1329Z" fill="#22D3EE"/>
</svg>
