<svg width="313" height="198" viewBox="0 0 313 198" fill="none" xmlns="http://www.w3.org/2000/svg">
<rect x="24.5" y="3.5" width="288" height="174" stroke="#E4E4E7"/>
<path d="M24 27.9999H313" stroke="#E4E4E7"/>
<path d="M24 53H313" stroke="#E4E4E7"/>
<path d="M24 78H313" stroke="#E4E4E7"/>
<path d="M24 103H313" stroke="#E4E4E7"/>
<path d="M24 128H313" stroke="#E4E4E7"/>
<path d="M24 153H313" stroke="#E4E4E7"/>
<path d="M3.63194 11L6.73994 3.386H2.81594V2.36H7.88594V3.386L4.78394 11H3.63194ZM12.2443 11.18C11.6843 11.18 11.1843 11.054 10.7443 10.802C10.3083 10.546 9.96228 10.2 9.70628 9.764C9.45428 9.324 9.32828 8.824 9.32828 8.264V5.096C9.32828 4.536 9.45428 4.036 9.70628 3.596C9.96228 3.156 10.3083 2.81 10.7443 2.558C11.1843 2.306 11.6843 2.18 12.2443 2.18C12.8043 2.18 13.3043 2.306 13.7443 2.558C14.1843 2.81 14.5303 3.156 14.7823 3.596C15.0343 4.036 15.1603 4.536 15.1603 5.096V8.264C15.1603 8.824 15.0343 9.324 14.7823 9.764C14.5303 10.2 14.1843 10.546 13.7443 10.802C13.3043 11.054 12.8043 11.18 12.2443 11.18ZM12.2443 10.154C12.5843 10.154 12.8923 10.072 13.1683 9.908C13.4443 9.744 13.6643 9.524 13.8283 9.248C13.9923 8.968 14.0743 8.66 14.0743 8.324V5.03C14.0743 4.69 13.9923 4.382 13.8283 4.106C13.6643 3.83 13.4443 3.61 13.1683 3.446C12.8923 3.282 12.5843 3.2 12.2443 3.2C11.9083 3.2 11.6003 3.282 11.3203 3.446C11.0443 3.61 10.8243 3.83 10.6603 4.106C10.4963 4.382 10.4143 4.69 10.4143 5.03V8.324C10.4143 8.66 10.4963 8.968 10.6603 9.248C10.8243 9.524 11.0443 9.744 11.3203 9.908C11.6003 10.072 11.9083 10.154 12.2443 10.154Z" fill="#52525B"/>
<path d="M4.82116 39.18C4.27316 39.18 3.77516 39.048 3.32716 38.784C2.88316 38.52 2.52916 38.16 2.26516 37.704C2.00516 37.244 1.87516 36.726 1.87516 36.15V33.276C1.87516 32.672 2.00516 32.138 2.26516 31.674C2.52916 31.206 2.88916 30.842 3.34516 30.582C3.80516 30.318 4.32916 30.186 4.91716 30.186C5.39316 30.186 5.83516 30.284 6.24316 30.48C6.65516 30.672 7.00116 30.95 7.28116 31.314L6.48316 32.022C6.31116 31.77 6.08716 31.57 5.81116 31.422C5.53516 31.274 5.23716 31.2 4.91716 31.2C4.53716 31.2 4.19916 31.292 3.90316 31.476C3.61116 31.656 3.38116 31.896 3.21316 32.196C3.04516 32.492 2.96116 32.812 2.96116 33.156V34.89L2.72716 34.626C2.97916 34.266 3.29916 33.978 3.68716 33.762C4.07516 33.546 4.49516 33.438 4.94716 33.438C5.48316 33.438 5.96316 33.564 6.38716 33.816C6.81516 34.068 7.15116 34.41 7.39516 34.842C7.64316 35.27 7.76716 35.752 7.76716 36.288C7.76716 36.824 7.63316 37.31 7.36516 37.746C7.09716 38.182 6.73916 38.53 6.29116 38.79C5.84716 39.05 5.35716 39.18 4.82116 39.18ZM4.82116 38.148C5.16516 38.148 5.47916 38.066 5.76316 37.902C6.04716 37.734 6.27116 37.51 6.43516 37.23C6.60316 36.946 6.68716 36.632 6.68716 36.288C6.68716 35.944 6.60316 35.63 6.43516 35.346C6.27116 35.062 6.04716 34.838 5.76316 34.674C5.48316 34.506 5.17116 34.422 4.82716 34.422C4.48316 34.422 4.16916 34.506 3.88516 34.674C3.60516 34.838 3.38116 35.062 3.21316 35.346C3.04516 35.63 2.96116 35.944 2.96116 36.288C2.96116 36.628 3.04316 36.94 3.20716 37.224C3.37516 37.504 3.59916 37.728 3.87916 37.896C4.16316 38.064 4.47716 38.148 4.82116 38.148ZM12.2443 39.18C11.6843 39.18 11.1843 39.054 10.7443 38.802C10.3083 38.546 9.96228 38.2 9.70628 37.764C9.45428 37.324 9.32828 36.824 9.32828 36.264V33.096C9.32828 32.536 9.45428 32.036 9.70628 31.596C9.96228 31.156 10.3083 30.81 10.7443 30.558C11.1843 30.306 11.6843 30.18 12.2443 30.18C12.8043 30.18 13.3043 30.306 13.7443 30.558C14.1843 30.81 14.5303 31.156 14.7823 31.596C15.0343 32.036 15.1603 32.536 15.1603 33.096V36.264C15.1603 36.824 15.0343 37.324 14.7823 37.764C14.5303 38.2 14.1843 38.546 13.7443 38.802C13.3043 39.054 12.8043 39.18 12.2443 39.18ZM12.2443 38.154C12.5843 38.154 12.8923 38.072 13.1683 37.908C13.4443 37.744 13.6643 37.524 13.8283 37.248C13.9923 36.968 14.0743 36.66 14.0743 36.324V33.03C14.0743 32.69 13.9923 32.382 13.8283 32.106C13.6643 31.83 13.4443 31.61 13.1683 31.446C12.8923 31.282 12.5843 31.2 12.2443 31.2C11.9083 31.2 11.6003 31.282 11.3203 31.446C11.0443 31.61 10.8243 31.83 10.6603 32.106C10.4963 32.382 10.4143 32.69 10.4143 33.03V36.324C10.4143 36.66 10.4963 36.968 10.6603 37.248C10.8243 37.524 11.0443 37.744 11.3203 37.908C11.6003 38.072 11.9083 38.154 12.2443 38.154Z" fill="#52525B"/>
<path d="M5.91184 67V65.41H1.93984V64.396L4.78984 58.36H6.00184L3.15184 64.396H5.91184V61.966H6.99184V64.396H7.89184V65.41H6.99184V67H5.91184ZM12.2443 67.18C11.6843 67.18 11.1843 67.054 10.7443 66.802C10.3083 66.546 9.96228 66.2 9.70628 65.764C9.45428 65.324 9.32828 64.824 9.32828 64.264V61.096C9.32828 60.536 9.45428 60.036 9.70628 59.596C9.96228 59.156 10.3083 58.81 10.7443 58.558C11.1843 58.306 11.6843 58.18 12.2443 58.18C12.8043 58.18 13.3043 58.306 13.7443 58.558C14.1843 58.81 14.5303 59.156 14.7823 59.596C15.0343 60.036 15.1603 60.536 15.1603 61.096V64.264C15.1603 64.824 15.0343 65.324 14.7823 65.764C14.5303 66.2 14.1843 66.546 13.7443 66.802C13.3043 67.054 12.8043 67.18 12.2443 67.18ZM12.2443 66.154C12.5843 66.154 12.8923 66.072 13.1683 65.908C13.4443 65.744 13.6643 65.524 13.8283 65.248C13.9923 64.968 14.0743 64.66 14.0743 64.324V61.03C14.0743 60.69 13.9923 60.382 13.8283 60.106C13.6643 59.83 13.4443 59.61 13.1683 59.446C12.8923 59.282 12.5843 59.2 12.2443 59.2C11.9083 59.2 11.6003 59.282 11.3203 59.446C11.0443 59.61 10.8243 59.83 10.6603 60.106C10.4963 60.382 10.4143 60.69 10.4143 61.03V64.324C10.4143 64.66 10.4963 64.968 10.6603 65.248C10.8243 65.524 11.0443 65.744 11.3203 65.908C11.6003 66.072 11.9083 66.154 12.2443 66.154Z" fill="#52525B"/>
<path d="M4.94828 95.168C4.52028 95.168 4.12228 95.09 3.75428 94.934C3.38628 94.774 3.06828 94.55 2.80028 94.262C2.53628 93.97 2.34228 93.624 2.21828 93.224L3.24428 92.93C3.37628 93.33 3.59628 93.634 3.90428 93.842C4.21228 94.05 4.55828 94.152 4.94228 94.148C5.29428 94.14 5.59828 94.06 5.85428 93.908C6.11428 93.752 6.31428 93.54 6.45428 93.272C6.59828 93.004 6.67028 92.694 6.67028 92.342C6.67028 91.806 6.51028 91.372 6.19028 91.04C5.87028 90.704 5.45028 90.536 4.93028 90.536C4.78628 90.536 4.63428 90.556 4.47428 90.596C4.31828 90.636 4.17228 90.692 4.03628 90.764L3.52028 89.918L6.72428 87.02L6.86228 87.38H2.56028V86.36H7.65428V87.386L4.92428 90.002L4.91228 89.624C5.48428 89.584 5.98428 89.678 6.41228 89.906C6.84028 90.134 7.17228 90.46 7.40828 90.884C7.64828 91.308 7.76828 91.794 7.76828 92.342C7.76828 92.894 7.64428 93.382 7.39628 93.806C7.14828 94.23 6.81228 94.564 6.38828 94.808C5.96428 95.048 5.48428 95.168 4.94828 95.168ZM12.2443 95.18C11.6843 95.18 11.1843 95.054 10.7443 94.802C10.3083 94.546 9.96228 94.2 9.70628 93.764C9.45428 93.324 9.32828 92.824 9.32828 92.264V89.096C9.32828 88.536 9.45428 88.036 9.70628 87.596C9.96228 87.156 10.3083 86.81 10.7443 86.558C11.1843 86.306 11.6843 86.18 12.2443 86.18C12.8043 86.18 13.3043 86.306 13.7443 86.558C14.1843 86.81 14.5303 87.156 14.7823 87.596C15.0343 88.036 15.1603 88.536 15.1603 89.096V92.264C15.1603 92.824 15.0343 93.324 14.7823 93.764C14.5303 94.2 14.1843 94.546 13.7443 94.802C13.3043 95.054 12.8043 95.18 12.2443 95.18ZM12.2443 94.154C12.5843 94.154 12.8923 94.072 13.1683 93.908C13.4443 93.744 13.6643 93.524 13.8283 93.248C13.9923 92.968 14.0743 92.66 14.0743 92.324V89.03C14.0743 88.69 13.9923 88.382 13.8283 88.106C13.6643 87.83 13.4443 87.61 13.1683 87.446C12.8923 87.282 12.5843 87.2 12.2443 87.2C11.9083 87.2 11.6003 87.282 11.3203 87.446C11.0443 87.61 10.8243 87.83 10.6603 88.106C10.4963 88.382 10.4143 88.69 10.4143 89.03V92.324C10.4143 92.66 10.4963 92.968 10.6603 93.248C10.8243 93.524 11.0443 93.744 11.3203 93.908C11.6003 94.072 11.9083 94.154 12.2443 94.154Z" fill="#52525B"/>
<path d="M2.15078 122.994L2.15678 122.034L5.99078 118.584C6.31078 118.296 6.52478 118.024 6.63278 117.768C6.74478 117.508 6.80078 117.242 6.80078 116.97C6.80078 116.638 6.72478 116.338 6.57278 116.07C6.42078 115.802 6.21278 115.59 5.94878 115.434C5.68878 115.278 5.39278 115.2 5.06078 115.2C4.71678 115.2 4.41078 115.282 4.14278 115.446C3.87478 115.606 3.66278 115.82 3.50678 116.088C3.35478 116.356 3.28078 116.648 3.28478 116.964H2.19278C2.19278 116.42 2.31878 115.94 2.57078 115.524C2.82278 115.104 3.16478 114.776 3.59678 114.54C4.03278 114.3 4.52678 114.18 5.07878 114.18C5.61478 114.18 6.09478 114.304 6.51878 114.552C6.94278 114.796 7.27678 115.13 7.52078 115.554C7.76878 115.974 7.89278 116.45 7.89278 116.982C7.89278 117.358 7.84478 117.684 7.74878 117.96C7.65678 118.236 7.51278 118.492 7.31678 118.728C7.12078 118.96 6.87478 119.208 6.57878 119.472L3.39278 122.334L3.25478 121.974H7.89278V122.994H2.15078ZM12.2443 123.18C11.6843 123.18 11.1843 123.054 10.7443 122.802C10.3083 122.546 9.96228 122.2 9.70628 121.764C9.45428 121.324 9.32828 120.824 9.32828 120.264V117.096C9.32828 116.536 9.45428 116.036 9.70628 115.596C9.96228 115.156 10.3083 114.81 10.7443 114.558C11.1843 114.306 11.6843 114.18 12.2443 114.18C12.8043 114.18 13.3043 114.306 13.7443 114.558C14.1843 114.81 14.5303 115.156 14.7823 115.596C15.0343 116.036 15.1603 116.536 15.1603 117.096V120.264C15.1603 120.824 15.0343 121.324 14.7823 121.764C14.5303 122.2 14.1843 122.546 13.7443 122.802C13.3043 123.054 12.8043 123.18 12.2443 123.18ZM12.2443 122.154C12.5843 122.154 12.8923 122.072 13.1683 121.908C13.4443 121.744 13.6643 121.524 13.8283 121.248C13.9923 120.968 14.0743 120.66 14.0743 120.324V117.03C14.0743 116.69 13.9923 116.382 13.8283 116.106C13.6643 115.83 13.4443 115.61 13.1683 115.446C12.8923 115.282 12.5843 115.2 12.2443 115.2C11.9083 115.2 11.6003 115.282 11.3203 115.446C11.0443 115.61 10.8243 115.83 10.6603 116.106C10.4963 116.382 10.4143 116.69 10.4143 117.03V120.324C10.4143 120.66 10.4963 120.968 10.6603 121.248C10.8243 121.524 11.0443 121.744 11.3203 121.908C11.6003 122.072 11.9083 122.154 12.2443 122.154Z" fill="#52525B"/>
<path d="M5.95928 151V143.542L4.33328 144.526V143.332L5.95928 142.36H7.04528V151H5.95928ZM12.2443 151.18C11.6843 151.18 11.1843 151.054 10.7443 150.802C10.3083 150.546 9.96228 150.2 9.70628 149.764C9.45428 149.324 9.32828 148.824 9.32828 148.264V145.096C9.32828 144.536 9.45428 144.036 9.70628 143.596C9.96228 143.156 10.3083 142.81 10.7443 142.558C11.1843 142.306 11.6843 142.18 12.2443 142.18C12.8043 142.18 13.3043 142.306 13.7443 142.558C14.1843 142.81 14.5303 143.156 14.7823 143.596C15.0343 144.036 15.1603 144.536 15.1603 145.096V148.264C15.1603 148.824 15.0343 149.324 14.7823 149.764C14.5303 150.2 14.1843 150.546 13.7443 150.802C13.3043 151.054 12.8043 151.18 12.2443 151.18ZM12.2443 150.154C12.5843 150.154 12.8923 150.072 13.1683 149.908C13.4443 149.744 13.6643 149.524 13.8283 149.248C13.9923 148.968 14.0743 148.66 14.0743 148.324V145.03C14.0743 144.69 13.9923 144.382 13.8283 144.106C13.6643 143.83 13.4443 143.61 13.1683 143.446C12.8923 143.282 12.5843 143.2 12.2443 143.2C11.9083 143.2 11.6003 143.282 11.3203 143.446C11.0443 143.61 10.8243 143.83 10.6603 144.106C10.4963 144.382 10.4143 144.69 10.4143 145.03V148.324C10.4143 148.66 10.4963 148.968 10.6603 149.248C10.8243 149.524 11.0443 149.744 11.3203 149.908C11.6003 150.072 11.9083 150.154 12.2443 150.154Z" fill="#52525B"/>
<path d="M4.73256 179.18C4.17256 179.18 3.67256 179.054 3.23256 178.802C2.79656 178.546 2.45056 178.2 2.19456 177.764C1.94256 177.324 1.81656 176.824 1.81656 176.264V173.096C1.81656 172.536 1.94256 172.036 2.19456 171.596C2.45056 171.156 2.79656 170.81 3.23256 170.558C3.67256 170.306 4.17256 170.18 4.73256 170.18C5.29256 170.18 5.79256 170.306 6.23256 170.558C6.67256 170.81 7.01856 171.156 7.27056 171.596C7.52256 172.036 7.64856 172.536 7.64856 173.096V176.264C7.64856 176.824 7.52256 177.324 7.27056 177.764C7.01856 178.2 6.67256 178.546 6.23256 178.802C5.79256 179.054 5.29256 179.18 4.73256 179.18ZM4.73256 178.154C5.07256 178.154 5.38056 178.072 5.65656 177.908C5.93256 177.744 6.15256 177.524 6.31656 177.248C6.48056 176.968 6.56256 176.66 6.56256 176.324V173.03C6.56256 172.69 6.48056 172.382 6.31656 172.106C6.15256 171.83 5.93256 171.61 5.65656 171.446C5.38056 171.282 5.07256 171.2 4.73256 171.2C4.39656 171.2 4.08856 171.282 3.80856 171.446C3.53256 171.61 3.31256 171.83 3.14856 172.106C2.98456 172.382 2.90256 172.69 2.90256 173.03V176.324C2.90256 176.66 2.98456 176.968 3.14856 177.248C3.31256 177.524 3.53256 177.744 3.80856 177.908C4.08856 178.072 4.39656 178.154 4.73256 178.154ZM12.2443 179.18C11.6843 179.18 11.1843 179.054 10.7443 178.802C10.3083 178.546 9.96228 178.2 9.70628 177.764C9.45428 177.324 9.32828 176.824 9.32828 176.264V173.096C9.32828 172.536 9.45428 172.036 9.70628 171.596C9.96228 171.156 10.3083 170.81 10.7443 170.558C11.1843 170.306 11.6843 170.18 12.2443 170.18C12.8043 170.18 13.3043 170.306 13.7443 170.558C14.1843 170.81 14.5303 171.156 14.7823 171.596C15.0343 172.036 15.1603 172.536 15.1603 173.096V176.264C15.1603 176.824 15.0343 177.324 14.7823 177.764C14.5303 178.2 14.1843 178.546 13.7443 178.802C13.3043 179.054 12.8043 179.18 12.2443 179.18ZM12.2443 178.154C12.5843 178.154 12.8923 178.072 13.1683 177.908C13.4443 177.744 13.6643 177.524 13.8283 177.248C13.9923 176.968 14.0743 176.66 14.0743 176.324V173.03C14.0743 172.69 13.9923 172.382 13.8283 172.106C13.6643 171.83 13.4443 171.61 13.1683 171.446C12.8923 171.282 12.5843 171.2 12.2443 171.2C11.9083 171.2 11.6003 171.282 11.3203 171.446C11.0443 171.61 10.8243 171.83 10.6603 172.106C10.4963 172.382 10.4143 172.69 10.4143 173.03V176.324C10.4143 176.66 10.4963 176.968 10.6603 177.248C10.8243 177.524 11.0443 177.744 11.3203 177.908C11.6003 178.072 11.9083 178.154 12.2443 178.154Z" fill="#52525B"/>
<path d="M29.3728 197.18C28.7608 197.18 28.2088 197.076 27.7168 196.868C27.2288 196.66 26.8248 196.364 26.5048 195.98C26.1888 195.592 25.9828 195.134 25.8868 194.606L26.9908 194.432C27.1308 194.976 27.4208 195.402 27.8608 195.71C28.3048 196.014 28.8268 196.166 29.4268 196.166C29.8148 196.166 30.1648 196.106 30.4768 195.986C30.7928 195.862 31.0428 195.686 31.2268 195.458C31.4108 195.23 31.5028 194.96 31.5028 194.648C31.5028 194.456 31.4688 194.292 31.4008 194.156C31.3368 194.016 31.2468 193.898 31.1308 193.802C31.0188 193.702 30.8908 193.618 30.7468 193.55C30.6028 193.482 30.4528 193.426 30.2968 193.382L28.0948 192.728C27.8548 192.656 27.6228 192.566 27.3988 192.458C27.1748 192.346 26.9748 192.208 26.7988 192.044C26.6228 191.876 26.4828 191.676 26.3788 191.444C26.2748 191.208 26.2228 190.93 26.2228 190.61C26.2228 190.098 26.3548 189.662 26.6188 189.302C26.8868 188.938 27.2488 188.66 27.7048 188.468C28.1608 188.276 28.6748 188.182 29.2468 188.186C29.8268 188.19 30.3448 188.294 30.8008 188.498C31.2608 188.698 31.6408 188.986 31.9408 189.362C32.2448 189.738 32.4488 190.188 32.5528 190.712L31.4188 190.91C31.3588 190.558 31.2248 190.256 31.0168 190.004C30.8128 189.748 30.5568 189.552 30.2488 189.416C29.9408 189.276 29.6028 189.204 29.2348 189.2C28.8828 189.196 28.5648 189.252 28.2808 189.368C27.9968 189.484 27.7708 189.646 27.6028 189.854C27.4348 190.058 27.3508 190.294 27.3508 190.562C27.3508 190.826 27.4268 191.04 27.5788 191.204C27.7308 191.364 27.9168 191.492 28.1368 191.588C28.3608 191.68 28.5788 191.756 28.7908 191.816L30.4348 192.29C30.6228 192.342 30.8388 192.414 31.0828 192.506C31.3308 192.598 31.5708 192.728 31.8028 192.896C32.0348 193.06 32.2268 193.28 32.3788 193.556C32.5308 193.828 32.6068 194.172 32.6068 194.588C32.6068 195.004 32.5228 195.374 32.3548 195.698C32.1908 196.022 31.9608 196.294 31.6648 196.514C31.3688 196.73 31.0248 196.894 30.6328 197.006C30.2408 197.122 29.8208 197.18 29.3728 197.18ZM36.3254 197.168C35.9094 197.168 35.5514 197.102 35.2514 196.97C34.9554 196.838 34.7094 196.662 34.5134 196.442C34.3174 196.222 34.1634 195.978 34.0514 195.71C33.9394 195.442 33.8594 195.168 33.8114 194.888C33.7674 194.608 33.7454 194.346 33.7454 194.102V190.52H34.8254V193.766C34.8254 194.07 34.8534 194.364 34.9094 194.648C34.9654 194.932 35.0594 195.188 35.1914 195.416C35.3274 195.644 35.5074 195.824 35.7314 195.956C35.9594 196.088 36.2434 196.154 36.5834 196.154C36.8514 196.154 37.0954 196.108 37.3154 196.016C37.5354 195.924 37.7234 195.788 37.8794 195.608C38.0354 195.424 38.1554 195.192 38.2394 194.912C38.3234 194.632 38.3654 194.306 38.3654 193.934L39.0674 194.15C39.0674 194.774 38.9534 195.312 38.7254 195.764C38.5014 196.216 38.1834 196.564 37.7714 196.808C37.3634 197.048 36.8814 197.168 36.3254 197.168ZM38.4854 197V195.266H38.3654V190.52H39.4394V197H38.4854ZM45.7333 197V193.754C45.7333 193.446 45.7053 193.15 45.6493 192.866C45.5973 192.582 45.5033 192.328 45.3673 192.104C45.2353 191.876 45.0553 191.696 44.8273 191.564C44.6033 191.432 44.3193 191.366 43.9753 191.366C43.7073 191.366 43.4633 191.412 43.2433 191.504C43.0273 191.592 42.8413 191.728 42.6853 191.912C42.5293 192.096 42.4073 192.328 42.3193 192.608C42.2353 192.884 42.1933 193.21 42.1933 193.586L41.4913 193.37C41.4913 192.742 41.6033 192.204 41.8273 191.756C42.0553 191.304 42.3733 190.958 42.7813 190.718C43.1933 190.474 43.6773 190.352 44.2333 190.352C44.6533 190.352 45.0113 190.418 45.3073 190.55C45.6033 190.682 45.8493 190.858 46.0453 191.078C46.2413 191.294 46.3953 191.538 46.5073 191.81C46.6193 192.078 46.6973 192.352 46.7413 192.632C46.7893 192.908 46.8133 193.17 46.8133 193.418V197H45.7333ZM41.1133 197V190.52H42.0733V192.254H42.1933V197H41.1133Z" fill="#52525B"/>
<path d="M82.0353 197V188.36H83.0073L86.2713 195.242L89.5173 188.36H90.5013V196.994H89.4873V190.706L86.5533 197H85.9833L83.0493 190.706V197H82.0353ZM94.9438 197.18C94.2998 197.18 93.7438 197.034 93.2758 196.742C92.8118 196.45 92.4538 196.046 92.2018 195.53C91.9498 195.014 91.8238 194.422 91.8238 193.754C91.8238 193.074 91.9518 192.478 92.2078 191.966C92.4638 191.454 92.8258 191.056 93.2938 190.772C93.7618 190.484 94.3118 190.34 94.9438 190.34C95.5918 190.34 96.1498 190.486 96.6178 190.778C97.0858 191.066 97.4438 191.468 97.6918 191.984C97.9438 192.496 98.0698 193.086 98.0698 193.754C98.0698 194.43 97.9438 195.026 97.6918 195.542C97.4398 196.054 97.0798 196.456 96.6118 196.748C96.1438 197.036 95.5878 197.18 94.9438 197.18ZM94.9438 196.166C95.6158 196.166 96.1158 195.942 96.4438 195.494C96.7718 195.046 96.9358 194.466 96.9358 193.754C96.9358 193.022 96.7698 192.44 96.4378 192.008C96.1058 191.572 95.6078 191.354 94.9438 191.354C94.4918 191.354 94.1198 191.456 93.8278 191.66C93.5358 191.864 93.3178 192.146 93.1738 192.506C93.0298 192.866 92.9578 193.282 92.9578 193.754C92.9578 194.482 93.1258 195.066 93.4618 195.506C93.7978 195.946 94.2918 196.166 94.9438 196.166ZM104.005 197V193.754C104.005 193.446 103.977 193.15 103.921 192.866C103.869 192.582 103.775 192.328 103.639 192.104C103.507 191.876 103.327 191.696 103.099 191.564C102.875 191.432 102.591 191.366 102.247 191.366C101.979 191.366 101.735 191.412 101.515 191.504C101.299 191.592 101.113 191.728 100.957 191.912C100.801 192.096 100.679 192.328 100.591 192.608C100.507 192.884 100.465 193.21 100.465 193.586L99.7628 193.37C99.7628 192.742 99.8748 192.204 100.099 191.756C100.327 191.304 100.645 190.958 101.053 190.718C101.465 190.474 101.949 190.352 102.505 190.352C102.925 190.352 103.283 190.418 103.579 190.55C103.875 190.682 104.121 190.858 104.317 191.078C104.513 191.294 104.667 191.538 104.779 191.81C104.891 192.078 104.969 192.352 105.013 192.632C105.061 192.908 105.085 193.17 105.085 193.418V197H104.005ZM99.3848 197V190.52H100.345V192.254H100.465V197H99.3848Z" fill="#52525B"/>
<path d="M142.095 197V189.374H139.149V188.36H146.109V189.374H143.163V197H142.095ZM148.927 197.168C148.511 197.168 148.153 197.102 147.853 196.97C147.557 196.838 147.311 196.662 147.115 196.442C146.919 196.222 146.765 195.978 146.653 195.71C146.541 195.442 146.461 195.168 146.413 194.888C146.369 194.608 146.347 194.346 146.347 194.102V190.52H147.427V193.766C147.427 194.07 147.455 194.364 147.511 194.648C147.567 194.932 147.661 195.188 147.793 195.416C147.929 195.644 148.109 195.824 148.333 195.956C148.561 196.088 148.845 196.154 149.185 196.154C149.453 196.154 149.697 196.108 149.917 196.016C150.137 195.924 150.325 195.788 150.481 195.608C150.637 195.424 150.757 195.192 150.841 194.912C150.925 194.632 150.967 194.306 150.967 193.934L151.669 194.15C151.669 194.774 151.555 195.312 151.327 195.764C151.103 196.216 150.785 196.564 150.373 196.808C149.965 197.048 149.483 197.168 148.927 197.168ZM151.087 197V195.266H150.967V190.52H152.041V197H151.087ZM156.529 197.18C155.893 197.18 155.337 197.04 154.861 196.76C154.389 196.476 154.021 196.082 153.757 195.578C153.493 195.07 153.361 194.478 153.361 193.802C153.361 193.094 153.491 192.482 153.751 191.966C154.011 191.446 154.373 191.046 154.837 190.766C155.305 190.482 155.853 190.34 156.481 190.34C157.133 190.34 157.687 190.49 158.143 190.79C158.603 191.09 158.947 191.518 159.175 192.074C159.407 192.63 159.507 193.292 159.475 194.06H158.395V193.676C158.383 192.88 158.221 192.286 157.909 191.894C157.597 191.498 157.133 191.3 156.517 191.3C155.857 191.3 155.355 191.512 155.011 191.936C154.667 192.36 154.495 192.968 154.495 193.76C154.495 194.524 154.667 195.116 155.011 195.536C155.355 195.956 155.845 196.166 156.481 196.166C156.909 196.166 157.281 196.068 157.597 195.872C157.913 195.676 158.161 195.394 158.341 195.026L159.367 195.38C159.115 195.952 158.735 196.396 158.227 196.712C157.723 197.024 157.157 197.18 156.529 197.18ZM154.135 194.06V193.202H158.923V194.06H154.135Z" fill="#52525B"/>
<path d="M195.696 197L193.194 188.36H194.31L196.23 195.194L198.144 188.366L199.266 188.36L201.186 195.194L203.1 188.36H204.222L201.72 197H200.652L198.708 190.226L196.764 197H195.696ZM207.337 197.18C206.701 197.18 206.145 197.04 205.669 196.76C205.197 196.476 204.829 196.082 204.565 195.578C204.301 195.07 204.169 194.478 204.169 193.802C204.169 193.094 204.299 192.482 204.559 191.966C204.819 191.446 205.181 191.046 205.645 190.766C206.113 190.482 206.661 190.34 207.289 190.34C207.941 190.34 208.495 190.49 208.951 190.79C209.411 191.09 209.755 191.518 209.983 192.074C210.215 192.63 210.315 193.292 210.283 194.06H209.203V193.676C209.191 192.88 209.029 192.286 208.717 191.894C208.405 191.498 207.941 191.3 207.325 191.3C206.665 191.3 206.163 191.512 205.819 191.936C205.475 192.36 205.303 192.968 205.303 193.76C205.303 194.524 205.475 195.116 205.819 195.536C206.163 195.956 206.653 196.166 207.289 196.166C207.717 196.166 208.089 196.068 208.405 195.872C208.721 195.676 208.969 195.394 209.149 195.026L210.175 195.38C209.923 195.952 209.543 196.396 209.035 196.712C208.531 197.024 207.965 197.18 207.337 197.18ZM204.943 194.06V193.202H209.731V194.06H204.943ZM214.163 197.18C213.559 197.18 213.041 197.03 212.609 196.73C212.177 196.426 211.843 196.016 211.607 195.5C211.375 194.984 211.259 194.402 211.259 193.754C211.259 193.106 211.375 192.524 211.607 192.008C211.843 191.492 212.177 191.086 212.609 190.79C213.041 190.49 213.557 190.34 214.157 190.34C214.769 190.34 215.283 190.488 215.699 190.784C216.115 191.08 216.429 191.486 216.641 192.002C216.857 192.518 216.965 193.102 216.965 193.754C216.965 194.398 216.857 194.98 216.641 195.5C216.429 196.016 216.115 196.426 215.699 196.73C215.283 197.03 214.771 197.18 214.163 197.18ZM214.295 196.202C214.731 196.202 215.089 196.098 215.369 195.89C215.649 195.678 215.855 195.388 215.987 195.02C216.123 194.648 216.191 194.226 216.191 193.754C216.191 193.274 216.123 192.852 215.987 192.488C215.855 192.12 215.651 191.834 215.375 191.63C215.099 191.422 214.749 191.318 214.325 191.318C213.885 191.318 213.521 191.426 213.233 191.642C212.949 191.858 212.737 192.15 212.597 192.518C212.461 192.886 212.393 193.298 212.393 193.754C212.393 194.214 212.463 194.63 212.603 195.002C212.743 195.37 212.953 195.662 213.233 195.878C213.517 196.094 213.871 196.202 214.295 196.202ZM216.191 197V192.23H216.071V188.36H217.145V197H216.191Z" fill="#52525B"/>
<path d="M254.341 197V189.374H251.395V188.36H258.355V189.374H255.409V197H254.341ZM263.925 197V193.754C263.925 193.446 263.897 193.15 263.841 192.866C263.789 192.582 263.695 192.328 263.559 192.104C263.427 191.876 263.247 191.696 263.019 191.564C262.795 191.432 262.511 191.366 262.167 191.366C261.899 191.366 261.655 191.412 261.435 191.504C261.219 191.592 261.033 191.728 260.877 191.912C260.721 192.096 260.599 192.328 260.511 192.608C260.427 192.884 260.385 193.21 260.385 193.586L259.683 193.37C259.683 192.742 259.795 192.204 260.019 191.756C260.247 191.304 260.565 190.958 260.973 190.718C261.385 190.474 261.869 190.352 262.425 190.352C262.845 190.352 263.203 190.418 263.499 190.55C263.795 190.682 264.041 190.858 264.237 191.078C264.433 191.294 264.587 191.538 264.699 191.81C264.811 192.078 264.889 192.352 264.933 192.632C264.981 192.908 265.005 193.17 265.005 193.418V197H263.925ZM259.305 197V188.36H260.265V193.13H260.385V197H259.305Z" fill="#52525B"/>
<path d="M300.049 197V188.36H305.089V189.428H301.117V192.146H304.369V193.214H301.117V197H300.049ZM306.166 197V190.52H307.12V192.086L306.964 191.882C307.04 191.682 307.138 191.498 307.258 191.33C307.382 191.162 307.52 191.024 307.672 190.916C307.84 190.78 308.03 190.676 308.242 190.604C308.454 190.532 308.67 190.49 308.89 190.478C309.11 190.462 309.316 190.476 309.508 190.52V191.522C309.284 191.462 309.038 191.446 308.77 191.474C308.502 191.502 308.254 191.6 308.026 191.768C307.818 191.916 307.656 192.096 307.54 192.308C307.428 192.52 307.35 192.75 307.306 192.998C307.262 193.242 307.24 193.492 307.24 193.748V197H306.166ZM310.763 189.374V188.27H311.831V189.374H310.763ZM310.763 197V190.52H311.831V197H310.763Z" fill="#52525B"/>
<path d="M33 142.5L93.389 118.5L149.286 144L202.189 43L258.212 92.5L305 144" stroke="#18181B" stroke-width="2"/>
<ellipse cx="33.8542" cy="143" rx="2.85419" ry="3" fill="#4F46E5"/>
<ellipse cx="93.8542" cy="119" rx="2.85419" ry="3" fill="#4F46E5"/>
<circle cx="203" cy="43.3225" r="3" fill="#4F46E5"/>
<ellipse cx="258.854" cy="93.0129" rx="2.85419" ry="3" fill="#4F46E5"/>
<ellipse cx="149.854" cy="144.335" rx="2.85419" ry="3" fill="#4F46E5"/>
<ellipse cx="305.854" cy="144.994" rx="2.85419" ry="3" fill="#4F46E5"/>
</svg>
