<svg width="16" height="16" viewBox="0 0 16 16" fill="none" xmlns="http://www.w3.org/2000/svg">
<g clip-path="url(#clip0_652_1267)">
<path d="M6.00004 7.33333C7.4728 7.33333 8.66671 6.13943 8.66671 4.66667C8.66671 3.19391 7.4728 2 6.00004 2C4.52728 2 3.33337 3.19391 3.33337 4.66667C3.33337 6.13943 4.52728 7.33333 6.00004 7.33333Z" stroke="#A1A1AA" stroke-width="0.75" stroke-linecap="round" stroke-linejoin="round"/>
<path d="M2 14V12.6667C2 11.9594 2.28095 11.2811 2.78105 10.781C3.28115 10.281 3.95942 10 4.66667 10H7.33333C8.04058 10 8.71885 10.281 9.21895 10.781C9.71905 11.2811 10 11.9594 10 12.6667V14" stroke="#A1A1AA" stroke-width="0.75" stroke-linecap="round" stroke-linejoin="round"/>
<path d="M10.6666 2.08667C11.2402 2.23354 11.7487 2.56714 12.1117 3.03488C12.4748 3.50262 12.6719 4.07789 12.6719 4.67C12.6719 5.26212 12.4748 5.83739 12.1117 6.30513C11.7487 6.77287 11.2402 7.10647 10.6666 7.25334" stroke="#A1A1AA" stroke-width="0.75" stroke-linecap="round" stroke-linejoin="round"/>
<path d="M14 14V12.6666C13.9966 12.0781 13.7986 11.5072 13.4368 11.0429C13.0751 10.5786 12.5699 10.2471 12 10.1" stroke="#A1A1AA" stroke-width="0.75" stroke-linecap="round" stroke-linejoin="round"/>
</g>
<defs>
<clipPath id="clip0_652_1267">
<rect width="16" height="16" fill="white"/>
</clipPath>
</defs>
</svg>
